<?xml version="1.0" encoding="UTF-8" standalone="no"?>
<!-- Created with Inkscape (http://www.inkscape.org/) -->

<svg
   xmlns:dc="http://purl.org/dc/elements/1.1/"
   xmlns:cc="http://creativecommons.org/ns#"
   xmlns:rdf="http://www.w3.org/1999/02/22-rdf-syntax-ns#"
   xmlns:svg="http://www.w3.org/2000/svg"
   xmlns="http://www.w3.org/2000/svg"
   xmlns:sodipodi="http://sodipodi.sourceforge.net/DTD/sodipodi-0.dtd"
   xmlns:inkscape="http://www.inkscape.org/namespaces/inkscape"
   width="885.82672"
   height="885.82672"
   id="svg2"
   viewBox="0 0 885.82672 885.82672"
   version="1.1"
   inkscape:version="0.91 r13725"
   sodipodi:docname="1527341158.svg">
  <metadata
     id="metadata10215">
    <rdf:RDF>
      <cc:Work
         rdf:about="">
        <dc:format>image/svg+xml</dc:format>
        <dc:type
           rdf:resource="http://purl.org/dc/dcmitype/StillImage" />
      </cc:Work>
    </rdf:RDF>
  </metadata>
  <defs
     id="defs10213" />
  <sodipodi:namedview
     pagecolor="#ffffff"
     bordercolor="#666666"
     borderopacity="1"
     objecttolerance="10"
     gridtolerance="10"
     guidetolerance="10"
     inkscape:pageopacity="0"
     inkscape:pageshadow="2"
     inkscape:window-width="756"
     inkscape:window-height="480"
     id="namedview10211"
     showgrid="false"
     inkscape:zoom="0.26641779"
     inkscape:cx="442.91336"
     inkscape:cy="442.91336"
     inkscape:window-x="0"
     inkscape:window-y="0"
     inkscape:window-maximized="0"
     inkscape:current-layer="layer2" />
  <g
     inkscape:groupmode="layer"
     id="layer2"
     inkscape:label="Draw">
    <path
       d="m 419.76014,652.58234 c -11.46626,-1.63944 -26.57629,-5.3117 -35.71502,-8.67999 l -6.28498,-2.31647 9.5,-0.66129 c 30.65748,-2.13407 55.7106,-22.31974 64.95935,-52.33871 2.93519,-9.52685 3.71548,-24.81215 1.73564,-34 -5.69263,-26.41781 -22.27221,-45.88084 -47.19499,-55.40297 -8.11134,-3.09906 -10.24258,-3.48226 -21.58429,-3.88089 -14.8954,-0.52353 -24.9091,1.49318 -36.58376,7.36778 -32.39181,16.29934 -48.24727,55.25519 -36.31141,89.21485 2.38582,6.78809 1.19433,5.94394 -7.43657,-5.26868 -17.06177,-22.16537 -28.24385,-46.52668 -33.74759,-73.52261 -3.34599,-16.41213 -3.73659,-45.33758 -0.84409,-62.50748 5.04496,-29.94688 18.30847,-59.28592 37.07033,-82 3.18011,-3.85 34.95453,-36.13627 70.60982,-71.74726 l 64.8278,-64.74726 66.18405,66.24726 c 36.40122,36.43599 68.19017,68.74487 70.6421,71.79751 21.49091,26.75602 35.35862,62.31512 37.52586,96.2225 2.06286,32.27447 -3.82175,62.71456 -17.39331,89.97261 -24.93401,50.07916 -70.60777,84.55937 -125.58192,94.80478 -14.85135,2.76781 -40.38458,3.44694 -54.37702,1.44632 z"
       id="path20411"
       inkscape:connector-curvature="0" />
  </g>
</svg>
