<?xml version="1.0" encoding="UTF-8"?>
<svg xmlns="http://www.w3.org/2000/svg" viewBox="89 75 318 325" width="318" height="325">
  <!-- Ghost body -->
  <path d="M0 0 C20.10256691 16.26024803 34.87819428 37.57947896 38.1875 63.76953125 C38.46074249 68.12006401 38.59879554 72.45510272 38.6875 76.8125 C39.49397619 108.73115191 42.19992181 139.06430556 66.3359375 162.734375 C70.00595213 165.97764375 73.95948905 168.8070311 77.953125 171.63671875 C82.9917218 175.64600221 85.36027289 179.29625985 86.48828125 185.546875 C86.87339201 189.92656604 85.95121208 193.0673738 83.375 196.625 C77.90943725 202.72120461 70.88920791 205.2992975 63.3359375 208.01953125 C50.85398343 212.53885945 45.98921795 218.32090001 39.01953125 229.25390625 C33.70859595 237.46871692 27.49316695 242.9501775 17.75 245.25 C10.388348 246.38875554 3.34927772 245.1730557 -3.875 243.6875 C-10.12959473 242.53978632 -15.95813152 241.87814751 -21.65625 245.1640625 C-25.54523688 248.08080266 -28.92792527 251.39678091 -32.3125 254.875 C-40.66120582 263.40519942 -50.43310595 268.95599728 -62.5 269.25 C-73.76530721 268.87286769 -82.79467839 262.91379118 -90.50390625 254.9375 C-92.75099008 252.29729783 -94.73016862 249.50490583 -96.75 246.6875 C-101.32320213 240.49429915 -105.56878234 236.26373689 -113.3125 234.875 C-116.79371116 234.61863174 -119.69589039 235.36413376 -123.0546875 236.3125 C-130.93101016 238.05673754 -138.12014382 237.43490546 -145.13671875 233.40625 C-151.75307285 228.55980032 -154.82181713 221.11947486 -158.2109375 213.86328125 C-163.63290399 205.99235963 -172.98560762 204.06453593 -181.7109375 201.49609375 C-188.522037 199.37992844 -193.06039335 197.11558975 -197.1875 191.0625 C-199.03855323 185.71501288 -199.07285512 181.04883859 -197.25 175.6875 C-193.32438105 169.86238801 -188.78887337 165.98205892 -182.8125 162.3125 C-169.50322089 154.0690993 -162.68158781 141.23950933 -157.3125 126.8125 C-156.95414063 125.96300781 -156.59578125 125.11351562 -156.2265625 124.23828125 C-150.92114519 110.57583443 -150.52313764 94.93878212 -149.65063477 80.45727539 C-147.95656368 52.97761837 -140.00209136 27.24778404 -119.52734375 7.74609375 C-86.66535611 -20.94294308 -36.187531 -25.86861612 0 0Z" fill="#FFFFFF" transform="translate(293.3125,126.1875)"/>
  <!-- Left eye (follows heart) -->
  <path d="M0 0 C6.14904083 3.13253023 9.78128988 7.52402131 12 14 C12.9651815 21.40720684 11.94344234 27.63671804 8 34 C5.05416007 37.55011479 2.53910803 39.94439348 -2 41 C-7.98037209 41 -10.99998432 39.79098769 -15.45703125 35.86328125 C-20.44646333 29.83806833 -20.52110564 24.17823961 -20.34375 16.640625 C-19.73699259 10.21451246 -17.74516743 6.1526177 -12.8125 2 C-8.68489521 -0.6129687 -4.74732191 -0.93560359 0 0Z" fill="#27183f" transform="translate(211,179)">
    <animateTransform attributeName="transform" type="translate" values="214.4 178.2;214.5 179.3;214.0 180.8;207.8 180.3;208.1 177.0;210.1 175.6;212.5 175.8;213.9 177.0;214.4 178.2" dur="4s" repeatCount="indefinite"/>
  </path>
  <!-- Right eye (follows heart) -->
  <path d="M0 0 C5.29186889 2.74857846 8.16944028 6.63722709 10.0625 12.31640625 C10.67948801 20.27656307 11.14202722 27.76524031 6.0625 34.31640625 C2.19178163 38.54719144 -1.07318186 40.20132948 -6.69921875 40.50390625 C-10.53000468 40.18300272 -13.11950973 38.91007888 -15.9375 36.31640625 C-21.58365213 29.03199236 -22.77118763 22.44065419 -21.9375 13.31640625 C-20.30780617 7.89590286 -17.25469655 3.96941872 -12.9375 0.31640625 C-8.58499493 -1.13442877 -4.35636245 -1.53702304 0 0Z" fill="#27183f" transform="translate(274.9375,179.68359375)">
    <animateTransform attributeName="transform" type="translate" values="278.1 178.1;278.4 180.3;272.6 182.3;271.5 180.0;271.6 178.7;272.3 177.4;274.1 176.3;276.6 176.6;278.1 178.1" dur="4s" repeatCount="indefinite"/>
  </path>
  <!-- Mouth -->
  <path d="M0 0 C5.7789208 2.83494228 10.66456242 7.92372877 13 14 C13.69000993 21.4135951 14.40456329 29.84590877 10.34375 36.38671875 C6.58885113 40.89478048 2.77639628 44.47009715 -3.19921875 45.30859375 C-9.21051669 45.62001107 -12.70420241 44.71981794 -17.30859375 40.78515625 C-23.29614033 34.46573642 -24.41977787 27.60761374 -24.34765625 19.1796875 C-23.65856619 12.87722335 -20.94080554 7.89346882 -16.4375 3.5 C-10.81772147 0.04167475 -6.61729526 -0.83895978 0 0Z" fill="#27183f" transform="translate(244,231)"/>
  <!-- Heart orbiting around ghost head -->
  <g transform="translate(248,165)">
    <g>
      <path d="M0 0 C3.125 2.0625 3.125 2.0625 5 4 C7.23695664 2.9229468 9.18655616 1.86141543 11.1875 0.375 C15.17742703 -1.57563099 18.63689273 -1.68607164 23 -1 C27.83933207 1.37401196 30.52322134 4.22990776 33 9 C35.0141805 16.30140432 33.11878174 22.21731993 30 29 C24.91083219 37.23062942 16.95137449 45.03331248 8 49 C4.68867578 49.4891729 3.28677918 49.16284659 0.3515625 47.49609375 C-10.14741136 39.56921807 -19.56468676 31.63775413 -22 18 C-22.08538393 11.92706771 -20.97158149 7.76589778 -17 3 C-11.7132021 -1.64597391 -6.61608035 -1.41171141 0 0Z" fill="#FF5CA9" transform="translate(-5.5,-24)"/>
      <animateMotion dur="4s" repeatCount="indefinite" path="M85,0 C85,30 46,55 0,55 C-46,55 -85,30 -85,0 C-85,-30 -46,-55 0,-55 C46,-55 85,-30 85,0Z"/>
    </g>
  </g>
</svg>
